<?xml version="1.0" encoding="utf-8"?>
<!-- Generator: Adobe Illustrator 25.0.0, SVG Export Plug-In . SVG Version: 6.00 Build 0)  -->
<svg version="1.1" id="Layer_1" xmlns="http://www.w3.org/2000/svg" xmlns:xlink="http://www.w3.org/1999/xlink" x="0px" y="0px"
	 viewBox="0 0 100 25" enable-background="new 0 0 100 25" xml:space="preserve">
<g>
	<path fill="#D26A42" d="M7.07,13.53h-0.9l-0.81,4.25h-3.2l2.45-12.6h4.9c2.11,0,4.05,1.4,3.51,4.18c-0.32,1.75-1.44,2.95-2.75,3.6
		l1.71,4.83H8.39L7.07,13.53z M8.17,10.73c0.79,0,1.48-0.52,1.64-1.37c0.18-0.85-0.32-1.37-1.12-1.37H7.25l-0.52,2.74H8.17z"/>
	<path fill="#D26A42" d="M15.06,8.78h2.95l-1.75,9h-2.95L15.06,8.78z M15.8,4.96h2.95l-0.5,2.59H15.3L15.8,4.96z"/>
	<path fill="#D26A42" d="M23.49,17.12C22.95,17.69,22.14,18,21.25,18c-1.76,0-2.95-1.22-2.47-3.73l0.4-1.98
		c0.49-2.5,2.14-3.73,3.91-3.73c0.88,0,1.58,0.31,1.87,0.88l0.88-4.48h2.95l-2.48,12.82h-2.95L23.49,17.12z M24.55,11.66
		c-0.14-0.41-0.45-0.72-0.95-0.72c-0.74,0-1.28,0.41-1.51,1.58l-0.29,1.51c-0.23,1.17,0.16,1.58,0.9,1.58c0.5,0,0.92-0.31,1.22-0.72
		L24.55,11.66z"/>
	<path fill="#D26A42" d="M33.77,14.79l2.97,0.18C36.05,16.74,34.18,18,32.06,18c-2.43,0-3.8-1.67-3.37-3.89l0.32-1.66
		c0.43-2.21,2.45-3.89,4.88-3.89c2.36,0,3.8,1.66,3.4,3.75l-0.36,1.84h-5.29l-0.04,0.13c-0.16,0.85,0.23,1.35,0.92,1.35
		C33.05,15.62,33.51,15.37,33.77,14.79z M34.31,12.24c0.16-0.77-0.2-1.3-0.88-1.3s-1.26,0.52-1.42,1.3v0.07h2.3V12.24z"/>
	<path fill="#D26A42" d="M39.65,8.78h2.95L42.39,9.9c0.74-0.92,1.6-1.33,2.5-1.33c0.38,0,0.72,0.05,0.95,0.18l-0.45,2.34
		c-0.22-0.09-0.59-0.14-0.97-0.14c-1.01,0-1.85,0.43-2.47,1.19l-1.1,5.65H37.9L39.65,8.78z"/>
	<path d="M47.89,5.18h8.44l-0.56,2.81h-5.24l-0.38,1.93h4.5l-0.54,2.81h-4.5l-0.43,2.25h5.24l-0.54,2.81h-8.45L47.89,5.18z"/>
	<path d="M59.59,15.23l-1.67,2.56H54.7l3.29-4.65l-1.37-4.36h3.21l0.58,2.29l1.48-2.29h3.2l-3.06,4.36l1.49,4.65H60.3L59.59,15.23z"
		/>
	<path d="M69.15,9.45c0.54-0.58,1.35-0.88,2.23-0.88c1.76,0,2.95,1.22,2.47,3.73l-0.4,1.98c-0.49,2.5-2.14,3.73-3.91,3.73
		c-0.88,0-1.58-0.31-1.87-0.88l-0.9,4.59h-2.95l2.52-12.93h2.95L69.15,9.45z M68.11,14.9c0.13,0.41,0.43,0.72,0.94,0.72
		c0.74,0,1.28-0.41,1.51-1.58l0.29-1.51c0.23-1.17-0.16-1.58-0.9-1.58c-0.5,0-0.92,0.31-1.21,0.72L68.11,14.9z"/>
	<path d="M79.18,17.78l0.18-0.95C78.75,17.58,77.9,18,76.88,18c-1.58,0-2.63-1.04-2.3-2.7l0.04-0.16c0.32-1.62,1.71-2.81,4.52-2.81
		h1.1l0.07-0.31c0.14-0.77-0.22-1.15-0.88-1.15c-0.52,0-1.06,0.27-1.42,0.83l-2.36-0.56c0.96-1.51,2.45-2.57,4.45-2.57
		c2.52,0,3.55,1.53,3.13,3.58l-1.08,5.64H79.18z M79.72,14.94l0.14-0.7h-1.28c-0.63,0-1.08,0.29-1.17,0.7l-0.02,0.11
		c-0.07,0.4,0.25,0.65,0.77,0.65C78.78,15.69,79.4,15.41,79.72,14.94z"/>
	<path d="M85.73,8.78h2.95L88.47,9.9c0.74-0.92,1.6-1.33,2.5-1.33c0.38,0,0.72,0.05,0.95,0.18l-0.45,2.34
		c-0.22-0.09-0.59-0.14-0.97-0.14c-1.01,0-1.85,0.43-2.47,1.19l-1.1,5.65h-2.95L85.73,8.78z"/>
	<path d="M95.4,14.4c-0.14,0.74,0.05,1.01,0.74,1.01h1.12l-0.45,2.38h-1.82c-2.25,0-3.02-0.9-2.57-3.15l0.67-3.47H91.9l0.47-2.38
		h1.17l0.49-2.56h2.95L96.5,8.78h1.98l-0.47,2.38h-1.98L95.4,14.4z"/>
</g>
<g>
</g>
<g>
</g>
<g>
</g>
<g>
</g>
<g>
</g>
<g>
</g>
</svg>
